  <svg version="1.1" id="Layer_1" xmlns="http://www.w3.org/2000/svg" xmlns:xlink="http://www.w3.org/1999/xlink" x="0px" y="0px"
	 viewBox="0 0 1080 661.4" style="enable-background:new 0 0 1080 661.4;" xml:space="preserve">
<style type="text/css">
	.st0{fill:#114B70 ;}
</style>
<g>
	<path class="st0" d="M998.3,64.7c-19.9-18.4-44.1-20.3-59.2,8.5c-6.7,12.8-12.2,25.5-10.2,40.5c-4.3-1-7.1-2.6-10-4.6
		c-32-22.3-66.6-13.5-91.1,17.3c-19.2,24.1-34,50.6-48.8,77.1c-4.6,8.3-6.6,6-12.2,1.7c-10.8-8.4-9.2-20.5-10.1-32
		c-5.3,0.6-8.7,3.1-12.1,5.8c-16.2,12.9-34.2,22.5-54.3,27.6c-24.3,6.2-38.2-3.1-38.5-25.6c-0.1-6,0-12,0-19.8
		c-44.3,23.3-89.9,36.9-136.7,47.3c-44.4,9.9-89.4,14-134.5,17c-17.4,1.2-34.8-1.2-52.2-1.9c-29.5-1.1-58.4-5.6-87.2-11.2
		c-22.1-4.3-41.8-10.6-47.5-37c-6.5-29.9-10.6-60.1-14.2-90.4c-1.8-14.9-2.5-30.3-9.9-45.8c-4.3,6.9-8.4,11.9-10.8,17.6
		c-2.8,6.5-10,12.1-7.4,19.9c6.9,20.5,8.4,42,11.9,63.1c1.8,10.7,2.9,22.5-2.1,33.5c-8,17.7-23.9,25.3-40.9,27.5
		c-21.1,2.8-44.4,6-56.5-19.6c-1.2-2.5-2.6-3.1-4.9-3c-3.1,0.1-3,2.4-3.2,4.6c-3.7,31.6-6.6,63.3-4.7,95.1c0.6,10,5,19.7,19.1,22.1
		c42.7,7.3,73.6-0.6,96.2-37.3c1.4-2.3,2.6-5,5.3-5c4.8,0.1,2.8,4.8,3.6,7.2c5.9,18.3,17.3,32.4,34.9,39.1
		c32.7,12.5,67.5,17.8,102.2,18.8c44,1.4,88.1,1.6,132.1-4.4c37.1-5,73.5-12.2,109.3-22.6c28.2-8.2,55.1-19.9,82.1-32.7
		c0.1,2.8,0.2,4.5,0.3,6.2c2.1,23.5,17.7,41.5,47.5,35.7c23.8-4.6,41.9-18.6,60.4-34.5c-0.1,8,1.1,15.8,5.7,20
		c11.7,10.4,12.5,22.9,11.1,36.7c0,0.3,1.3,0.7,2.2,1.2c6.1-2.3,6.1-8.9,9.2-13.4c1.9-2.8,2-4.7,7.3-3.4c24.8,5.9,49.8,4.5,75,1.5
		c46.2-5.5,89.2-20.3,130-41.6c14-7.3,30.5-13.5,34.3-32.3c7.8-37.8,10.1-75.9,8-114.4C1025.2,100.6,1015.6,80.6,998.3,64.7z
		 M986.7,100.6c-13.1,1.6-24.9,3.5-33.8-8.3C964.9,83.8,970,85,986.7,100.6z M819.8,220.5c-10.6,1.3-20.2-3.1-32.3-3.2
		c16.3-28.3,30.7-55.3,56.3-74.6c25.7-19.4,47.7-12.3,69.5,6.1c19.8,16.7,19.5,18.1-1,33.7C885.1,203.2,854.2,216.1,819.8,220.5z
		 M1009.3,160c-26.3,19.9-57.2,29.7-87.4,41.7c18-19,26.9-40.4,20.9-66.8c18.3,3.3,37-1.7,55.2,3.6c4.7,1.4,9.2,2.8,12.3,6.5
		C1014.4,150,1016.6,154.4,1009.3,160z"/>
	<path class="st0" d="M211.2,451.8c-17.7-27.2-42.9-40.2-75.5-38.6c-44.8,2.1-74.9,34-77.4,76.1c-2.5,40.9,20.1,77.2,66.1,86.7
		c15.9,3.3,18.5,8,15.4,23.6c-0.7,3.6-2.7,7.4-5.1,10.1c-4,4.4-2.1,7,1.8,9.3c5.9,3.5,12,6.6,17.8,10.2c8.4,5.2,11.8,1.4,12-6.8
		c0.3-13,2-26.6-3.4-38.7c-3.7-8.3,0.6-10.4,6.1-11.8c30.2-7.7,56.8-43.1,52.7-77.9C223.2,479.3,219.6,464.8,211.2,451.8z
		 M94.5,532.1c17.4,7,29.8,17.1,38.1,34.2C113.1,562,101.2,551.3,94.5,532.1z M193.1,491.6c-1,26.4-3.9,48.9-23.6,65.1
		c-7.3,6-12.6,12-20-1.9c-10.1-19.1-27.1-32.4-48.4-38.3c-8.1-2.2-12.8-6.6-12.8-14.1c-0.1-24.7,1.5-49.3,21.3-67.8
		c13.3-12.3,30-14.4,46-9.1c19.3,6.4,30.3,22.4,34.3,42.2C191.5,476.4,194.7,485.3,193.1,491.6z"/>
	<path class="st0" d="M984.5,429c-24.3-13-50.3-14.2-72.3-13.2c-15.5,0-26.5-0.1-37.5,0.1c-2.7,0-6.6-1.3-6.6,3.8
		c0,3.7,2.4,4,5.2,4.1c9.2,0.2,10.8,5.6,10.7,13.8c-0.3,38.7-0.4,77.3,0,116c0.1,7.3-1.8,11.5-9.2,12.7c-2.7,0.4-6.7-1.1-6.7,3.9
		c0,6,4.7,4,7.7,4c18,0.2,36,0.3,54,0.1c40.7-0.5,85.3-19.6,89.8-69.8C1022.4,472.7,1009.3,442.3,984.5,429z M975.1,544.7
		c-9.5,13.7-43.8,23.6-60.8,19c-6.2-1.7-3.9-6.1-3.9-9.4c-0.2-20.2-0.1-40.4-0.1-60.6c0-19.3,0.3-38.7-0.2-58
		c-0.2-7.5,2.2-9.2,9.5-9.6c28.6-1.3,53.1,6.5,64.2,34.9C994.9,489.6,993.1,518.6,975.1,544.7z"/>
	<path class="st0" d="M505.5,476.7c-9.4-4.1-19.3-6.8-26.3-15.4c-7-8.7-7-23.3,0.9-30.9c9-8.6,24.2-9.1,32.8-1.6
		c11.4,9.8,17.9,23,25.5,35.5c1.7,2.8,3.8,4.9,7.4,4.2c4.7-0.9,3.2-5,2.8-7.4c-1.1-7.6-2.7-15.2-4.5-22.6
		c-5-20.8-10.2-24.8-31.3-25.2c-3.1-0.1-6.1,0-9.2,0c-19.5-1.3-36.3,4.8-46.9,21.5c-13.5,21.1-5.2,53.4,28.7,65.5
		c12.1,4.3,24.2,8.4,34.7,16.1c9.2,6.8,13,15.6,11.1,27.5c-2.3,13.8-11.8,19.7-23.5,22.4c-14,3.3-24.6-3.2-32.3-14.6
		c-6.5-9.6-12.7-19.3-18.4-29.3c-1.7-3-3.3-3.6-6.1-3.1c-3.1,0.7-2.1,3.4-2.2,5.3c-0.7,11,4.5,21.1,5,31.7
		c0.4,10.7,6.2,15.4,15.2,17.6c19.2,4.7,38.3,4.8,57.2-2.2c29.4-10.8,41.1-47,21.5-70.7C537,488.2,520.4,483.2,505.5,476.7z"/>
	<path class="st0" d="M694.3,490.8c-13.9-7.8-28.6-13.2-43-19.6c-12.2-5.4-19.5-14-18.1-28.3c1-9.9,6.6-16,15.4-18.7
		c12.9-4,24.1,0.9,32.2,13.3c6.1,9.3,12.6,18.4,18.1,28.1c2.6,4.6,6,3.3,8.8,2.6c2.9-0.8,1.9-4,1.3-6.7c-2-8.3-4.2-16.6-4.7-25.3
		c-0.6-11.9-5.8-18.8-19.2-20.9c-10.9-1.7-21.6-2.4-32.4-1.9c-19.7,0.9-39.5,18.3-43.2,36.9c-3,15.1,9.5,36.3,26.7,44.8
		c12.7,6.2,25.6,11.9,38.1,18.4c11.2,5.8,18.4,14.4,16.9,28c-1.2,11-7.5,18.3-17.3,22.2c-11.9,4.7-22.9,5.1-32.8-6.1
		c-8.8-9.8-15.3-20.7-21.6-32c-1.7-3.1-4.2-7.6-8.9-6.1c-2.9,0.9-4.4,4.2-3.6,7.7c2.4,10.8,6.1,21.5,6.8,32.5
		c0.6,9.8,6.2,13.2,13.4,14c9.4,1.1,18.5,5.3,27.2,3.2c8.9,0.3,16.5,0,24.1-2.5c17.2-5.6,32.5-14.9,35.8-33.2
		C718,521.6,715.5,502.7,694.3,490.8z"/>
	<path class="st0" d="M403.5,566.1c-7.6-1.7-10.6-6.9-13.3-14.4c-15.1-43.6-31.4-86.7-46.7-130.2c-1.4-4-2.4-5.2-6.5-5.8
		c-10.7-1.6-16.7,2.6-20.2,12.7c-13,37.9-26.1,75.9-40,113.5c-3.7,9.9-4.4,23.7-20,24.5c-2.9,0.2-3.4,2.1-3.4,4.4
		c0,3,2.1,3.4,4.4,3.4c9.2,0,18.5-0.1,27.7,0.1c6.4,0.2,8-1.1,6.1-8.3c-7.6-28.7,12.6-62.1,41.2-71.5c6-2,7.6-0.7,9.2,3.7
		c6.8,18.9,13.2,37.9,20.4,56.6c2.5,6.5,2,10.2-5.1,11.4c-2.8,0.5-3.7,1.7-3.7,4.2c-0.1,4,2.8,3.8,5.4,3.8c7,0.1,14.1,0,21.1,0
		c7.5,0,15,0.1,22.4-0.1c2.4,0,5.5,1,6.2-2.8C409.6,567,406.8,566.8,403.5,566.1z M332.6,473.6c-1.3,7.3-14,5.1-22.9,12.9
		c4.8-14.8,8.6-26.3,12.7-39c1.5,1.7,1.9,2,2,2.4C327.5,457.8,333.9,466.4,332.6,473.6z"/>
	<path class="st0" d="M1038,35.8C1012.5,13,981.8,4.2,945,3.6c-6.5-1.5-15.9,1.2-25.1,3.1c-22.3,4.7-43.6,12-60.7,28.4
		c-5,4.8-5.8,7.7,1.5,11.3c9.5,4.7,18.6,10.5,27.5,16.3c4.8,3.1,8,2.2,11.1-2c21.3-28.8,43.6-36,79.4-28.2c16,3.5,30.1,8.7,42.2,20
		c8.3,7.7,18.6,3.7,24.4-1.9C1052.5,43.8,1042.1,39.4,1038,35.8z"/>
	<path class="st0" d="M812.6,574.2c2.9-0.1,7.6,2.2,7.9-3.8c0.3-4.9-3.8-3.9-6.4-4.4c-7.7-1.5-9.6-5.8-9.5-13.5
		c0.4-38.2,0.4-76.5,0-114.7c-0.1-8.1,1.3-13.6,10.5-14c2.7-0.1,5.3-0.1,5.4-3.9c0.1-5.1-3.7-4-6.5-4c-14.9-0.1-29.8-0.1-44.8,0
		c-2.7,0-6.6-1.3-6.6,3.8c0,3.8,2.4,3.9,5.2,4c9.2,0.3,10.7,5.7,10.7,13.9c-0.4,37.8-0.5,75.6,0.1,113.4c0.1,8.8-1.9,14-10.7,15.1
		c-3.6,0.5-6,1.2-5.2,5.4c0.8,3.8,4,2.6,6.3,2.7c7.5,0.2,14.9,0.1,22.4,0.1C798.5,574.3,805.5,574.5,812.6,574.2z"/>
	<path class="st0" d="M620.1,350.9c2.9,3.8,6.1,9.3,12.9,5.8c19.6-10.3,21.3-23.2,6.6-39.2c-8-8.8-13.8-8.9-20.7,0.4
		c-2.9,3.9-6.5,7.2-10,11.2c-21.4-20.6-21.2-20.4-37.1-3.7c-6.3,6.6-6.1,11.9,0.6,17.6c2.7,2.3,5.3,4.8,7.4,7.5
		c6.5,8.5,13,9.9,19.6,0.3C606.4,340.3,612.9,341.7,620.1,350.9z"/>
	<path class="st0" d="M907.6,638.1c0.2-0.8,0.3-1.8,0-2.6c-1.5-4.4,3.5-12.9-3.5-13c-8.6-0.1-2.6,8.9-4.4,13.5
		c-0.4,1,0.6,2.8-1.6,2.9c-6.5-2.6-8-9.7-12.6-14.1c-3.3-3.2-8.2-5.9-9.2,0.9c-1.3,9.5-0.3,19.3-0.3,28.9c0,2.5,1,4.1,3.8,4
		c2.7-0.1,3.9-1.4,3.9-4c0-5.2,0-10.3,0-19.3c3.3,4.6,4.3,5.9,5.3,7.2c4.7,5.7,8.9,16.7,15.2,15.1
		C912,655.7,905.9,644.9,907.6,638.1z"/>
	<path class="st0" d="M764.9,626.5c-3.7-7-8.3-6.8-11.7,0.8c-3.7,8.2-7.4,16.3-10.9,24.5c-1.2,2.9-2,6,2.9,7.1
		c0.9-0.3,2.6-0.3,3.2-1.2c7.8-10.7,15.3-10.7,23.2,0c0.7,1,3.4,1.3,4.8,0.8c2.8-1.1,1.6-3.1,0.6-5.2
		C772.8,644.4,769.5,635.1,764.9,626.5z"/>
	<path class="st0" d="M817.1,637.9c-6-0.6-4.4,4.3-4.3,7.4c0.2,4.9-2.3,5.5-6.4,5.8c-5.2,0.4-8.6-2.1-10.9-5.8
		c-2.2-3.5-2-7.3,0.8-10.9c4.2-5.5,10-5.8,15.3-3.7c3.4,1.3,5.9,2.3,7.5-1.2c1.7-3.8-2.6-5.9-4.4-6.4c-7.6-2.4-15.7-2.5-22.4,2.5
		c-6.2,4.6-7.7,12.2-5.7,18.9c2.9,9.5,10.7,14.9,20.8,14.1c6.9-0.5,14.1-2.7,13.1-12.8C819.6,643.3,822.8,638.4,817.1,637.9z"/>
	<path class="st0" d="M858.9,621.8c-16.4-4.3-22.5,0.3-22.5,17.2c0,3.5,0.5,7.1-0.1,10.5c-1.5,9.5,4.2,10.3,10.9,9
		c5.2-1,14.7,4.2,14.7-4.1c0.1-7.5-9.3-1.9-14.1-3.6c-0.4-0.1-0.9,0-1.3,0c-3.1,0.1-5-0.9-4.7-4.5c0.2-2.9,2.2-3.4,4.5-3.4
		c2.6-0.1,5.3,0,7.9-0.1c2.5-0.1,5.5,0.6,5.8-3.3c0.5-4.8-2.9-4.2-6-4.6c-4-0.5-8.6,1.8-13.2-3.2c6.4-3.6,12.2-1.4,17.6-2.1
		c2.4-0.3,4.1-0.9,4.2-3.8C862.8,623.2,861.4,622.5,858.9,621.8z"/>
	<path class="st0" d="M946.1,650c-5.1,1.8-11.5,3.1-14.6-4c-1.5-3.4-4.6-6.6-1.6-10.8c4.3-5.9,10.2-7,16.2-4.5
		c3.5,1.4,6.3,2.2,7.4-1.2c1.1-3.6-2.7-5.8-5.5-7c-2.2-1-5.2-0.5-10.4-0.8c-7.5-1.1-11.9,5-15.4,13.1c-3.5,7.9,0.1,13.7,5.2,18.5
		c5.9,5.5,13,8.4,21.2,3.4c2.4-1.4,6.5-1.6,5.1-5.4C952.3,647.7,949.5,648.8,946.1,650z"/>
	<path class="st0" d="M984.2,629.3c-3.1,7.5-6.2,7.2-9.7,0.2c-1.3-2.6-3.1-5.1-5.2-7.1c-0.9-0.8-3.3-0.3-4.8,0.2
		c-0.6,0.2-1.2,2.3-0.8,3.1c5.3,10.9,13.5,20.5,15.7,33.4c0.7-15.1,12.5-24,17.2-36.4C988.7,619.8,986.3,624.4,984.2,629.3z"/>
</g>
</svg>
